<?xml version="1.0" encoding="utf-8"?>
<!-- Generator: Adobe Illustrator 28.3.0, SVG Export Plug-In . SVG Version: 6.00 Build 0)  -->
<svg version="1.1" id="Logo" xmlns="http://www.w3.org/2000/svg" xmlns:xlink="http://www.w3.org/1999/xlink" x="0px" y="0px"
	 viewBox="0 0 807.7 492.9" style="enable-background:new 0 0 807.7 492.9;" xml:space="preserve">
<style type="text/css">
	.st0{fill:url(#SVGID_1_);}
	.st1{fill:url(#SVGID_00000126321022954668345770000017459012055182486693_);}
	.st2{fill:url(#SVGID_00000018201499292544446750000001370664669829624452_);}
	.st3{fill:url(#SVGID_00000070812437669102386520000002546158375797280170_);}
	.st4{fill:url(#SVGID_00000101064366896313820220000004791825886795891900_);}
	.st5{fill:url(#SVGID_00000034782682939445382830000007296708607376624030_);}
	.st6{fill:url(#SVGID_00000093142897658338104330000007247880346465328318_);}
	.st7{fill:url(#SVGID_00000155121408389517327960000013492838008905809825_);}
	.st8{fill:url(#SVGID_00000180341443998472803920000014064444758882204580_);}
	.st9{fill:url(#SVGID_00000155839484099788371080000014849812220549281947_);}
	.st10{fill:url(#SVGID_00000062881835877068621620000008424145917557362057_);}
	.st11{fill:#FFFFFF;}
</style>
<g id="bottom">
	<g>
		<g>
			<g>
				
					<linearGradient id="SVGID_1_" gradientUnits="userSpaceOnUse" x1="338.2334" y1="67.0398" x2="807.4814" y2="67.0398" gradientTransform="matrix(1 0 0 -1 0 493.8898)">
					<stop  offset="0" style="stop-color:#378B7E"/>
					<stop  offset="1" style="stop-color:#B0F880"/>
				</linearGradient>
				<path class="st0" d="M398.4,489.7v-3.4c3.2,0,5.9-2.5,5.9-7v-65.2h-0.4l-15.7,48.8h-6.8l-16.2-48.8h-0.4v65.2c0,4.7,2.7,7,5.9,7
					v3.4h-32.6v-3.4c3.2,0,5.9-2.5,5.9-7V374.4c0-4.5-2.3-7-5.9-7V364H369c-0.2,1.1-0.5,2-0.5,3.1c0,1.4,0.2,4.3,0.7,5.8l16.4,47.7
					h0.5l14.8-46.3c0.7-2.2,1.3-4.9,1.3-7.6c0-0.9-0.2-1.8-0.4-2.7h30.6v3.4c-3.4,0-5.9,3.1-5.9,7v104.9c0,4.3,2.3,7,5.9,7v3.4
					L398.4,489.7L398.4,489.7z"/>
				
					<linearGradient id="SVGID_00000078047014159514527320000004049229039339909045_" gradientUnits="userSpaceOnUse" x1="338.2334" y1="66.9898" x2="807.4814" y2="66.9898" gradientTransform="matrix(1 0 0 -1 0 493.8898)">
					<stop  offset="0" style="stop-color:#378B7E"/>
					<stop  offset="1" style="stop-color:#B0F880"/>
				</linearGradient>
				<path style="fill:url(#SVGID_00000078047014159514527320000004049229039339909045_);" d="M497.3,491.2c-1.3-0.9-4.5-1.4-8.3-1.4
					h-48.8v-3.4c3.2,0,5.9-2.5,5.9-7V374.2c0-4.5-2.5-6.8-5.9-6.8V364h46.1c5.6,0,8.8-0.7,9.9-1.4l4.9,24.5l-4,1.3
					c-1.4-4-3.8-6.3-7.7-6.3H468v29.7h18.7c3.8,0,6.7-2.9,6.7-6.1h3.6v30.2h-3.6c0-3.2-2.2-6.1-6.7-6.1h-18.5v42.1h20.9
					c4.7,0,7-2.3,9-6.5l3.6,1.1L497.3,491.2z"/>
				
					<linearGradient id="SVGID_00000047767732954166734980000016253899324852204195_" gradientUnits="userSpaceOnUse" x1="338.2334" y1="67.2398" x2="807.4814" y2="67.2398" gradientTransform="matrix(1 0 0 -1 0 493.8898)">
					<stop  offset="0" style="stop-color:#378B7E"/>
					<stop  offset="1" style="stop-color:#B0F880"/>
				</linearGradient>
				<path style="fill:url(#SVGID_00000047767732954166734980000016253899324852204195_);" d="M538.4,490.8
					c-14.9,0-24.7-0.5-29.3-1.1v-3.4c3.6,0,5.9-2.5,5.9-5.8V373.3c0-3.6-2.3-5.9-5.9-5.9v-3.6c5.8-0.5,16-1.3,29-1.3
					c27.7,0,42.7,15.1,42.7,60.7C580.7,469.7,568.3,490.8,538.4,490.8z M542.2,381c-2.5,0-4.1-0.2-5.2,0v91.3
					c1.1,0.2,2.9,0.2,4.1,0.2c11.5,0,16.9-13.9,16.9-49.3C558,389.8,551.2,381,542.2,381z"/>
				
					<linearGradient id="SVGID_00000070115183759238852480000003700494726033619107_" gradientUnits="userSpaceOnUse" x1="338.2334" y1="65.4398" x2="807.4814" y2="65.4398" gradientTransform="matrix(1 0 0 -1 0 493.8898)">
					<stop  offset="0" style="stop-color:#378B7E"/>
					<stop  offset="1" style="stop-color:#B0F880"/>
				</linearGradient>
				<path style="fill:url(#SVGID_00000070115183759238852480000003700494726033619107_);" d="M657.7,374.2V466
					c0,4.7,0.9,7.7,1.8,9.2v1.3c-5.6,5.9-17.8,16.4-33.5,16.4c-16.9,0-28.3-9.9-34.2-16.4V475c1.1-1.6,1.6-4.1,1.6-9v-91.8
					c0-4.5-2.7-6.8-5.9-6.8V364h33.7v3.4c-3.4,0-5.9,2.3-5.9,6.8v89.6c0,7.7,5.2,10.6,10.8,10.6c5.9,0,11-3.4,11-10.6v-89.6
					c0-4.5-2.7-6.8-5.9-6.8V364h32.6v3.4C660.1,367.3,657.7,370,657.7,374.2z"/>
				
					<linearGradient id="SVGID_00000052069352281863274640000010317075046831237051_" gradientUnits="userSpaceOnUse" x1="338.2334" y1="66.9898" x2="807.4814" y2="66.9898" gradientTransform="matrix(1 0 0 -1 0 493.8898)">
					<stop  offset="0" style="stop-color:#378B7E"/>
					<stop  offset="1" style="stop-color:#B0F880"/>
				</linearGradient>
				<path style="fill:url(#SVGID_00000052069352281863274640000010317075046831237051_);" d="M694.3,492.1c-6.3,0-11.5-2.2-14.9-2.2
					c-2.2,0-4.1,0.5-5.2,0.9l-3.6-27.2l4.3-1.3c1.8,7.2,5.6,11.5,16.6,11.5c7.7,0,13.5-5.2,13.5-14.4c0-10.1-4-16.7-13.3-27.5
					c-13-14.9-20.3-26.1-20.3-40.1c0-18.4,10.6-30.1,29.7-30.1c5,0,10.6,2.2,14.4,2.2c1.4,0,4.1-0.5,5.4-1.3l3.8,23.9l-4.1,1.1
					c-2.2-4.7-7.2-7.9-16-7.9c-7.2,0-11.2,5.6-11.2,11.7c0,4.9,1.6,9,5,13.5c4.5,5.8,8.1,10.3,12.2,15.5
					c9.7,12.2,15.8,22.1,15.8,36.5C726.3,480.4,713.9,492.1,694.3,492.1z"/>
				
					<linearGradient id="SVGID_00000176018728949810877700000002965340942641135273_" gradientUnits="userSpaceOnUse" x1="338.2334" y1="67.0398" x2="807.4814" y2="67.0398" gradientTransform="matrix(1 0 0 -1 0 493.8898)">
					<stop  offset="0" style="stop-color:#378B7E"/>
					<stop  offset="1" style="stop-color:#B0F880"/>
				</linearGradient>
				<path style="fill:url(#SVGID_00000176018728949810877700000002965340942641135273_);" d="M776.2,489.7v-3.4
					c3.1,0,4.3-1.8,4.3-3.8c0-0.7-0.7-9.4-1.3-12.8c-2.2,1.1-6.5,2-10.3,2s-8.6-0.9-11-2c-0.5,3.4-1.6,11.7-1.6,12.8
					c0,2.2,1.3,3.8,4.3,3.8v3.4H731v-3.4c2.5,0,4.3-2,4.9-5l16.6-106.9c0.2-1.1,0.4-2.2,0.4-3.2c0-2-1.1-3.8-3.2-3.8V364h39.4v3.4
					c-2,0-3.4,1.4-3.4,3.6c0,1.3,0.2,2.5,0.4,4.1l16.2,105.8c0.7,4.3,2.7,5.4,5.4,5.4v3.4H776.2z M769.3,386.1H768l-7.6,64.8
					c1.8,1.1,5.6,2,8.6,2c3.1,0,6.1-0.9,7.9-2L769.3,386.1z"/>
			</g>
		</g>
		<g>
			<g>
				
					<linearGradient id="SVGID_00000135658852155278343240000013703691164950140064_" gradientUnits="userSpaceOnUse" x1="0" y1="67.0398" x2="321.8315" y2="67.0398" gradientTransform="matrix(1 0 0 -1 0 493.8898)">
					<stop  offset="0" style="stop-color:#FFFFFF"/>
					<stop  offset="1" style="stop-color:#E2FCF0"/>
				</linearGradient>
				<path style="fill:url(#SVGID_00000135658852155278343240000013703691164950140064_);" d="M60.1,489.7v-3.4c3.2,0,5.9-2.5,5.9-7
					v-65.2h-0.4L50,462.9h-6.8L27,414.1h-0.4v65.2c0,4.7,2.7,7,5.9,7v3.4H0v-3.4c3.2,0,5.9-2.5,5.9-7V374.4c0-4.5-2.3-7-5.9-7V364
					h30.8c-0.2,1.1-0.5,2-0.5,3.1c0,1.4,0.2,4.3,0.7,5.8l16.4,47.7h0.5l14.8-46.3c0.7-2.2,1.3-4.9,1.3-7.6c0-0.9-0.2-1.8-0.4-2.7
					h30.6v3.4c-3.4,0-5.9,3.1-5.9,7v104.9c0,4.3,2.3,7,5.9,7v3.4L60.1,489.7L60.1,489.7z"/>
				
					<linearGradient id="SVGID_00000028283346732263048730000006227731682302825857_" gradientUnits="userSpaceOnUse" x1="0" y1="66.9898" x2="321.8315" y2="66.9898" gradientTransform="matrix(1 0 0 -1 0 493.8898)">
					<stop  offset="0" style="stop-color:#FFFFFF"/>
					<stop  offset="1" style="stop-color:#E2FCF0"/>
				</linearGradient>
				<path style="fill:url(#SVGID_00000028283346732263048730000006227731682302825857_);" d="M159.1,491.2c-1.3-0.9-4.5-1.4-8.3-1.4
					H102v-3.4c3.2,0,5.9-2.5,5.9-7V374.2c0-4.5-2.5-6.8-5.9-6.8V364h46.1c5.6,0,8.8-0.7,9.9-1.4l4.9,24.5l-4,1.3
					c-1.4-4-3.8-6.3-7.7-6.3h-21.4v29.7h18.7c3.8,0,6.7-2.9,6.7-6.1h3.6v30.2h-3.6c0-3.2-2.2-6.1-6.7-6.1H130v42.1h20.9
					c4.7,0,7-2.3,9-6.5l3.6,1.1L159.1,491.2z"/>
				
					<linearGradient id="SVGID_00000164514608280238490400000003118593977047415442_" gradientUnits="userSpaceOnUse" x1="0" y1="67.2898" x2="321.8315" y2="67.2898" gradientTransform="matrix(1 0 0 -1 0 493.8898)">
					<stop  offset="0" style="stop-color:#FFFFFF"/>
					<stop  offset="1" style="stop-color:#E2FCF0"/>
				</linearGradient>
				<path style="fill:url(#SVGID_00000164514608280238490400000003118593977047415442_);" d="M236.2,434.5v38.9
					c0,3.6,0.5,8.1,2.2,9.5v1.1c-7.4,4.3-18.9,7.6-31.1,7.6c-25.2,0-37.1-25-37.1-66.1c0-46.3,18.7-63.9,39.8-63.9
					c3.6,0,9.2,1.1,11.9,1.1c1.4,0,3.4-0.5,4.1-0.9l3.6,23.9l-4,1.3c-2.5-5-5.4-7.4-12.6-7.4c-13,0-20.2,14.4-20.2,45.7
					c0,40.3,7.2,48.1,17.8,48.1c1.1,0,2.5-0.2,3.2-0.4v-38.5c0-4.5-2.7-6.7-5.9-6.7v-3.6h34.2v3.6
					C238.9,427.8,236.2,430.3,236.2,434.5z"/>
				
					<linearGradient id="SVGID_00000153673300760733283920000008740073570387089588_" gradientUnits="userSpaceOnUse" x1="0" y1="67.0398" x2="321.8315" y2="67.0398" gradientTransform="matrix(1 0 0 -1 0 493.8898)">
					<stop  offset="0" style="stop-color:#FFFFFF"/>
					<stop  offset="1" style="stop-color:#E2FCF0"/>
				</linearGradient>
				<path style="fill:url(#SVGID_00000153673300760733283920000008740073570387089588_);" d="M290.5,489.7v-3.4
					c3.1,0,4.3-1.8,4.3-3.8c0-0.7-0.7-9.4-1.3-12.8c-2.2,1.1-6.5,2-10.3,2s-8.6-0.9-11-2c-0.5,3.4-1.6,11.7-1.6,12.8
					c0,2.2,1.3,3.8,4.3,3.8v3.4h-29.7v-3.4c2.5,0,4.3-2,4.9-5l16.6-106.9c0.2-1.1,0.4-2.2,0.4-3.2c0-2-1.1-3.8-3.2-3.8V364h39.4v3.4
					c-2,0-3.4,1.4-3.4,3.6c0,1.3,0.2,2.5,0.4,4.1l16.2,105.8c0.7,4.3,2.7,5.4,5.4,5.4v3.4H290.5z M283.7,386.1h-1.3l-7.6,64.8
					c1.8,1.1,5.6,2,8.6,2c3.1,0,6.1-0.9,7.9-2L283.7,386.1z"/>
			</g>
		</g>
		<g>
			<g>
				
					<linearGradient id="SVGID_00000025411380373886883010000007255864045257609659_" gradientUnits="userSpaceOnUse" x1="287.3889" y1="444.8009" x2="524.0178" y2="208.172" gradientTransform="matrix(1 0 0 -1 0 493.8898)">
					<stop  offset="0" style="stop-color:#378B7E"/>
					<stop  offset="0.1584" style="stop-color:#3C917D"/>
					<stop  offset="0.3657" style="stop-color:#4BA17B"/>
					<stop  offset="0.6001" style="stop-color:#63BC77"/>
					<stop  offset="0.8527" style="stop-color:#84E272"/>
					<stop  offset="1" style="stop-color:#9AFB6F"/>
				</linearGradient>
				<circle style="fill:url(#SVGID_00000025411380373886883010000007255864045257609659_);" cx="405.9" cy="167.6" r="167.6"/>
				<path class="st11" d="M347.5,112.9c-0.6,3-0.8,5-0.8,5s8.2-4.2,11-4s15.7,2.9,20,3.9s9,1.9,10.3,2.8s2.4,3.7,3.8,7.7
					s2.9,11.9,2.9,14.2c-0.1,2.3-2.1,8-2.6,8.6s-8.5-7.7-8.5-7.7s-4.5-10.3-16.5-10.3c-11.9,0-17.4,9.5-17.4,9.5s10.3-3.8,16.4-3.7
					c6.1,0.2,10.3,3.6,12.7,5.3c2.5,1.8,7,5.6,6.9,6.3s-2.1,1.3-4.4,1.8c-2.2,0.4-3.8-0.3-4.5,0c-0.6,0.3,0.3-2.1,0.1-3.2
					c-0.2-1.1-1.8-2.5-2.7-2.5c-0.9,0-1.6,1.1-2,1.5c-0.3,0.5-2,4.6-6.2,4.6s-6.6-2.5-7.2-3.1s-2.9-1.2-3.9,0.1
					c-0.9,1.2-0.3,3.4,1.6,4.6c1.8,1.2,6.1,1.8,8.2,2s9.1-0.4,9.1-0.4s-0.7,2.3-1.5,2.7s-7,1.4-12.6,1.4c-5.5,0-8.9-0.5-12.3-2.9
					s-5.4-3.9-8.1-3c-2.6,0.9-3.2,3.3-3.4,8.2c-0.2,5,0.5,13,4.6,18.2s11.6,13.6,13.8,16.7c2.2,3.1,4,9.1,3.8,14.7
					c-0.2,5.6,0.4,19.6,1.3,22s4,7.5,9,10.8c5.1,3.3,16.5,11.4,19.1,12.8s9.7,3.8,18.2,3.8c8.4,0,15.6-2.4,18.2-3.8
					s14-9.5,19.1-12.8s8.1-8.4,9-10.8c0.9-2.4,1.5-16.4,1.3-22s1.6-11.6,3.8-14.7c2.2-3.1,9.7-11.5,13.8-16.7
					c4.1-5.2,4.8-13.2,4.6-18.2c-0.2-5-0.8-7.3-3.4-8.2s-4.6,0.5-8.1,3c-3.4,2.4-6.8,2.9-12.3,2.9s-11.7-1-12.6-1.4
					s-1.5-2.7-1.5-2.7s7,0.5,9.1,0.4c2.1-0.2,6.4-0.8,8.2-2c1.8-1.2,2.5-3.4,1.6-4.6c-0.9-1.2-3.3-0.7-3.9-0.1
					c-0.6,0.6-3,3.1-7.2,3.1s-5.9-4.1-6.2-4.6c-0.3-0.5-1-1.5-2-1.5c-0.9,0-2.5,1.4-2.7,2.5s0.7,3.5,0.1,3.2s-2.2,0.4-4.5,0
					c-2.2-0.4-4.3-1.1-4.4-1.8s4.4-4.5,6.9-6.3s6.7-5.2,12.7-5.3c6.1-0.2,16.4,3.7,16.4,3.7s-5.4-9.5-17.4-9.5
					c-11.9,0-16.5,10.3-16.5,10.3s-7.9,8.3-8.5,7.7c-0.5-0.6-2.5-6.3-2.6-8.6s1.4-10.2,2.9-14.2c1.4-4,2.5-6.8,3.8-7.7
					c1.3-0.9,6.1-1.8,10.3-2.8c4.3-1,17.2-3.7,20-3.9c2.8-0.2,11,4,11,4s-0.2-2-0.8-5c-32.5-7.6-58.4-35.7-58.4-35.7l0,0
					C405.9,77.2,380.1,105.3,347.5,112.9z M433,219.4c2.3-0.1,5.2-0.4,5.4,1.3c0.1,1.7-1.1,3.7-3.9,3.9c-2.9,0.3-7.2,0.6-8.6,2
					s-4,8.8-5,10.3c-1,1.4-2.1,2.8-9.4,3.2c5.1,1.9,7.7,5.8,7.7,5.8c-7.4-3.2-19-3.2-26.3,0c0,0,2.6-4,7.7-5.8
					c-7.4-0.4-8.4-1.8-9.4-3.2c-1-1.5-3.6-8.9-5-10.3c-1.4-1.4-5.7-1.7-8.6-2s-4.1-2.3-3.9-3.9c0.1-1.7,3-1.4,5.4-1.3
					c2.3,0.1,5.4-1.1,7.6-2.3c2.3-1.2,8.7-6.7,12.7-6.7c2.7,0,6.8,2.9,6.8,2.9s4.1-2.9,6.8-2.9c4,0,10.4,5.5,12.7,6.7
					C427.6,218.3,430.7,219.5,433,219.4z M402.4,208.2c1.1-0.3,5.2-1,5.1-5.9c0,0,1.9,5.9,1.5,6.3c-0.4,0.5-3,2-3,2
					S401.3,208.5,402.4,208.2z M415.4,184.7c1,0,1.7,0.6,3.1,2.8s3.3,2.7,4.4,1.1c1.4-1.9,1.3-4.6,1.3-4.6c5.3,8.2-5.3,12.2-8.7,13
					c-3.4,0.8-9.5,4.5-9.5,4.5s-6.2-3.7-9.5-4.5c-3.4-0.8-13.9-4.8-8.7-13c0,0-0.1,2.7,1.3,4.6c1.1,1.6,3,1.1,4.4-1.1
					c1.4-2.2,2-2.8,3.1-2.8c1,0,2.9,0.8,4.6,2.1s3.5,1.5,4.9,1.5s3.2-0.3,4.9-1.5S414.4,184.7,415.4,184.7z M420,224.1
					c0.6,2.9-1.4,6-4.3,6.6c-2.9,0.7-7.3,0.8-9.8,0.8s-7-0.1-9.8-0.8c-2.9-0.7-4.9-3.7-4.3-6.6c0.6-2.9,3.1-2.7,4.8-2.5
					c1.7,0.2,7,0.8,9.3,0.8s7.6-0.6,9.3-0.8C416.9,221.4,419.4,221.1,420,224.1z M468.7,130.2c0,2.6-7,2.4-11.4,1.3
					c-4.3-1.1-7.2-4-7.4-5.1c-0.2-1.1,1.6-2.2,3.4-3s4.5-1.7,6.8-1.7c2,0,3.2,0.5,4.5,1.6C465.5,124.1,468.7,127.6,468.7,130.2z
					 M446.8,147.3c0,1-0.8,1.7-1.7,1.7c-1,0-1.7-0.8-1.7-1.7c0-1,0.8-1.7,1.7-1.7C446,145.5,446.8,146.3,446.8,147.3z M366.8,149
					c-1,0-1.7-0.8-1.7-1.7c0-1,0.8-1.7,1.7-1.7c1,0,1.7,0.8,1.7,1.7C368.6,148.2,367.8,149,366.8,149z M343.1,130.2
					c0-2.6,3.2-6.2,4.1-6.9c1.3-1.1,2.5-1.7,4.5-1.7c2.3,0,5,0.9,6.8,1.7c1.8,0.8,3.6,1.9,3.4,3s-3.1,4-7.4,5.2
					C350.1,132.6,343.1,132.8,343.1,130.2z M360.8,29.1c4.8-1.5,9.6-2.9,14.6-3.9c6.6,8.3,2.9,16.8,2.9,16.8
					c0.8-9.1-3.8-12.6-9.3-13.4C365.1,28.1,361.7,28.9,360.8,29.1z M426.6,303.5c-3.8-3.4-7.3-12.3-14-16.1
					c-6.7-3.8-10.1-1.3-20.8-3.4c-10.8-2.1-22.3-8.4-26.8-20.2c-1,12.8-10,20.2-10,20.2c10.7,11.5,30.5,16,30.5,16s6.1,7.6,11.7,9.6
					c4.3,1.6,18.1,2.7,25.3,2.8c1.6-0.2,3.3-0.4,4.9-0.6C429.6,310.4,430.7,307.2,426.6,303.5z M406.5,297.5
					c-0.3,0.5-4.1-0.7-5.5-1.5c-2-1.2-2-2.1-0.1-2.5c1.2-0.2,2.5,0.2,3.3,0.9C405.1,295.2,406.8,297,406.5,297.5z M292.1,105.2
					c0,0,1.9-33.1,22.2-50.8c1.1-0.9,2.2-1.8,3.4-2.6c23.2-16.6,46.4-11.6,53.3,2.1s-9.1,26.5-9.1,26.5
					c18.7-24.6-2.8-28.2-17.6-26.5c-13.5,1.5-28.8,9.8-39.4,25.5C294,95.2,292.1,105.2,292.1,105.2z M348.8,80.1
					c6.3,0.3,7.1-8.7,0.8-9.5c-14.5-3.1-29.9,4.1-38.2,16.1c-4.2,5.9-7.4,11.7-9.1,18.7c-2.1,8.3-2.5,14.8-1.5,24.5
					c1.1,10.6,3,16,5.5,27c0.5,2.3,1.5,5.3,0.6,8.7c-0.7,2.4-2.2,3.1,0.6,9c2.6,5.6,10.3,12.3,16.2,18.6c2.4,2.6,5,0.9,5.7-2.2
					c0.9-4.1,1.3-8.4,2.1-12.6c1.1-5.6-0.7-10-4.6-14c-5.5-5.7-6.4-9-6.9-11.1c-2.9-16.4-3.2-33.4,2.2-49
					C326.7,91.1,335.2,83.3,348.8,80.1z M320.4,173.8c0.2,0.6-0.3,1.9-1,2.8c-0.6-0.7-1.4-1.4-1.6-2.2c-0.3-1.4-0.2-2.9-0.3-4.4
					C317.6,169.4,319.9,172.1,320.4,173.8z M494,221.5c-0.2-3.9,3.6-7.2,3.6-7.2c18.4-4.1,23.3-14.9,23.3-14.9
					c5.8,4,18.4,3.2,18.4,3.2C514.1,223.6,494,221.5,494,221.5z M541.2,217c-4.1,1.3-6.6,1.7-12.1,2.7c-5.6,1-9.1,2.7-12.2,7.4
					c-4.4,6.6-7.4,8.2-9.4,9.1c-2,0.9-4.8,1.5-6.6,1.8c-4.3,0.8-8.4,1.3-12.2-0.4c-2.9-1.5-4-3.9-4.8-7.2c-0.8-4-0.3-8.7,1-12.7
					c2.7-7.8,7.6-12.5,13.1-20.3c7.1-9.8,11.4-19.5,10.5-31.8c-0.8-10.3-4.9-15.2-9-21.5c-2.6-4-5.3-7.7-7.6-9.8
					c-1.8,0.7-3.1,1.8-4.2,3.1c0.6,2.6,1.8,5.9,2,8.8c0.5,5.3,1.7,12.2,0.2,20.6c-1.2,7.2-3.7,10.1-4.7,12c-2.6,4.8-6.1,9-9.6,13.6
					c-6.8,8.7-12.1,19.1-12.5,30.6c-0.9,16,6.3,29.5,23.2,31.2c5.9,0.6,10.1,0.9,16.6-0.7c4.9-1.2,8.2-3.2,10.9-4.7s5.5-2.5,8.4-2.4
					c2.5,0.1,3.5,1.5,8.7-2.6c4.9-3.7,12.5-14.7,15-23C547,217.4,544.3,216,541.2,217z M527.8,233.6c-0.6,0.7-1.6,1.1-2.6,1
					c-1.5-0.3-1.6-1.1-0.2-2.3c1-0.8,3.9-2,4.2-1.6C529.6,231.2,528.4,232.9,527.8,233.6z M351.6,240.2c-3.4-8.3-8-12.8-8.6-15.7
					c0,0,1.7-8.5,0.7-9.8c-0.9-1.3-12.8-9.8-16.5-11.5s-13.2-7.2-15.8-4.6s-1.3,7.6-0.9,10.2c0.4,2.6,5.6,16.7,7.4,18.7
					c4.9,5.7,11.8,5,14.2,8.3c2.4,3.3,6.9,16.6,2.7,21.9c-4.7,5.8-10.2,7.4-19.6,5.5c-5.4-1.1-27.4-8.7-40.1-31.7
					c8.9,18.2,21.4,34.2,36.6,47.2c6.8,2.4,22.4,5.7,34-3.7C357.2,265.4,355,248.5,351.6,240.2z M328.6,220.2
					c-1.1-0.1-2.1-0.9-2.6-1.8c-0.5-1-1.3-3.2-0.9-3.6c0.4-0.4,3.4,1.7,4.3,2.9C330.8,219.4,330.4,220.3,328.6,220.2z M475.7,295.4
					c-6.8,3.7-14,6.9-21.5,9.6c-7.8,1.7-26.5-5.6-27.1-20.8C427.1,284.2,443.9,310.6,475.7,295.4z M531.8,111.7
					c-11.7,8.9-29.2,8.9-41.2,14c-12,5.1-13.3,19.8-13.3,19.8c-10-25.5,16.6-37.3,23.5-39.5s27-14.8,12-31.2
					c-14.9-16.4-38.5-10.6-38.5-10.6s11-17.1,26-7.5c14.9,12.7,27.2,28.3,36,45.9C536,106.3,534.6,109.5,531.8,111.7z M285.7,85.5
					c-3,4.8-9.7,19.1-4.7,44c4.3,21.1-1.1,51-18.6,62.8c-1.2-6.9-1.9-13.9-2-21.1c11.8-14.8,7.6-32.1,7.6-32.1
					c-1.2,10.1-4.8,15.9-7.3,18.8C262.4,131.1,271.4,106.4,285.7,85.5z M371.9,309.2c-15.6-3.7-30.2-10-43.4-18.3
					c0.4,0.1,7,0.9,13.3-1.3C341.8,289.7,345.7,299.1,371.9,309.2z M469.8,263.7c-2.3-1.2-5.7-2.2-8-1.4c-7.1,2.4-14,5.5-20.7,8.9
					c-3.2,1.6-4.8,4.3-1.9,8.1c5,6.6,30,15,37.7,12.3c0.7-0.2,1.3-0.6,1.9-0.9c3.7-1.4,7.4-2.8,11.2-4.1
					c12.5-8.9,23.5-19.6,32.7-31.9c-1.7,1.6-2.2,2.1-2.7,2.5C504.9,271.5,488,273.6,469.8,263.7z M467.5,279c-1.1,0.8-2.7,1-3.9,0.5
					c-1.2-0.5-3.8-1.8-3.7-2.5c0.1-0.7,4.5-1.2,6.3-0.9C468.8,276.5,469.2,277.6,467.5,279z M550.5,149.9
					c0.9,14.3-2.1,24.6-8.1,24.6c-9.2,0-9.7-9.6-9.7-13.3s3.1-8.7,3.6-12.5s-1.8-6-4.6-9.5s-11.6-6.1-15.1-8c-3.5-2-8.1-2.8-8.7,0.7
					c-0.5,2.8,2.7,8.8,3.7,11.1c0.9,2.3,2,9.8,3.9,13c1.9,3.1,4.7,3.1,4.7,3.1c-2.2,17.3,5.5,32.6,19.5,32.6c5,0,10.2-2.4,11-9.1
					c0.5-5,0.8-10,0.8-15.2C551.5,161.6,551.2,155.7,550.5,149.9z M520.7,146.3c-0.8-1.1-1.2-4-0.7-3.9c0.8,0.8,1.7,1.6,2.3,2.5
					c0.4,0.6,0.3,1.4,0.5,2.2C521.9,147.1,520.9,146.7,520.7,146.3z M530.8,127c10.2,0.9,12.7-6.8,12.8-7.1c1.4,4,2.6,8.1,3.6,12.2
					C536.2,133.2,530.8,127,530.8,127z M394.6,22.4c3.7-0.3,7.5-0.4,11.3-0.4c0.8,0,1.5,0,2.3,0c-4.4,1.1-5.5,6.2-5.5,6.2
					C401.9,25.8,399.7,22.6,394.6,22.4z M300.2,182.9c0,0,1.2,13.1-6.9,23.7c-3.7,26.3,20.9,39.3,20.9,39.3
					c-24.2-9.2-27.1-26.5-27.3-33c-4.2,3-9.8,5.4-17.1,6.5l0,0C270.2,219.1,292,202.9,300.2,182.9z M373.5,92.7
					c-22.2,15.3-45.9,17.1-45.9,17.1s41.1-19.5,51.9-36.5s11-31.3,8.6-44.1c0,0,11.8,13.8,10.9,24.6
					C398.2,64.7,395.7,77.4,373.5,92.7z M463.2,98.4c11,2.8,21.6-1.2,31.5-5.5c5-2.1,4.5-8.8-0.9-11.3c-10.8-5-20.7-11.9-34.4-7.3
					c-13.2,4.3-32.6-13.6-31.2-27.7c0.4-3.7,4-8.3,7.5-10.1c5.9-3.2,15.9-8.5,34.3,0.3c-14.3-7-29.9-11.7-46.3-13.7
					c-14.9,5.7-17.4,22.3-12.9,36.2s15.5,23.4,28.9,29.8C447.3,92.7,455.1,96.4,463.2,98.4z M466.3,83.3c1.4,0.1,4.7,1.4,4.6,1.9
					c-0.1,0.6-2.3,1.1-3.4,1.2c-1,0.1-2.2-0.3-2.8-1.2C463.7,83.9,464.3,83.1,466.3,83.3z M468.7,42.2c0.5,0-13.2,3.3-18.3,18.1
					C450.4,60.3,431.7,39.8,468.7,42.2z"/>
			</g>
		</g>
	</g>
</g>
</svg>
